<?xml version="1.0" standalone="no"?>
<!DOCTYPE svg PUBLIC "-//W3C//DTD SVG 1.1//EN" "http://www.w3.org/Graphics/SVG/1.1/DTD/svg11.dtd" >
<svg xmlns="http://www.w3.org/2000/svg">
<metadata></metadata>
<defs>
<font id="rokkittbold" horiz-adv-x="0" >
<font-face units-per-em="2048" ascent="1638" descent="-410" />
<missing-glyph horiz-adv-x="458" />
<glyph horiz-adv-x="2048" />
<glyph horiz-adv-x="2048" />
<glyph unicode="&#xd;" horiz-adv-x="2048" />
<glyph />
<glyph />
<glyph />
<glyph />
<glyph />
<glyph />
<glyph />
<glyph />
<glyph unicode="&#x9;" />
<glyph />
<glyph />
<glyph />
<glyph />
<glyph />
<glyph />
<glyph />
<glyph />
<glyph />
<glyph />
<glyph unicode=" "  horiz-adv-x="458" />
<glyph unicode="&#x09;" horiz-adv-x="458" />
<glyph unicode="&#xa0;" horiz-adv-x="458" />
<glyph unicode="!" horiz-adv-x="541" d="M149 0v242h244l-20 -242h-224zM170 906v316h203v-316l-45 -497h-109z" />
<glyph unicode="&#x22;" horiz-adv-x="819" d="M143 1222h216l-44 -465h-122zM472 1222h216l-45 -465h-121z" />
<glyph unicode="#" horiz-adv-x="1245" d="M87 336v134h198l46 288h-231v135h259l58 346h150l-58 -346h322l59 346h151l-60 -346h179v-135h-205l-46 -288h239v-134h-266l-58 -347h-149l57 347h-325l-58 -347h-148l56 347h-170zM434 470h324l46 288h-324z" />
<glyph unicode="$" horiz-adv-x="1005" d="M86 902q0 151 95.5 236.5t251.5 93.5v135h133v-149q92 -29 147 -80v77h165v-351h-159v91q-54 87 -153 108v-351q63 -18 110.5 -36t100 -50t86 -70t56 -95.5t22.5 -128.5q0 -156 -108.5 -251t-266.5 -99v-116h-133v131q-92 23 -167 92v-89h-172v407h171v-110 q68 -114 168 -145v395q-62 19 -104.5 36t-92 47t-79.5 65t-50.5 88t-20.5 119zM282 924q0 -64 39 -102.5t112 -67.5v312q-72 -11 -111.5 -49t-39.5 -93zM566 145q75 11 120 60.5t45 118.5q0 68 -42 109.5t-123 72.5v-361z" />
<glyph unicode="%" horiz-adv-x="1671" d="M68 920q0 156 76.5 240.5t200.5 84.5q125 0 201.5 -84t76.5 -241t-76.5 -241t-201.5 -84q-124 0 -200.5 84.5t-76.5 240.5zM235 922q0 -213 111 -213q51 0 80 53.5t29 155.5q0 212 -111 212q-109 0 -109 -208zM295 0l960 1247l79 -57l-956 -1246zM1049 299q0 158 76 242 t201 84t202 -84.5t77 -241.5q0 -156 -77 -240t-202 -84t-201 83.5t-76 240.5zM1216 302q0 -213 111 -213q52 0 80.5 53.5t28.5 156.5q0 210 -111 210q-109 0 -109 -207z" />
<glyph unicode="&#x26;" horiz-adv-x="1328" d="M63 352q0 233 320 356q-113 143 -113 256q0 116 92 192.5t230 76.5q130 0 217 -73.5t87 -182.5q0 -102 -61 -179.5t-193 -135.5l238 -275q78 97 119 274h263v-147l-139 -1q-52 -154 -140 -254l87 -110h193v-149h-306l-95 125q-170 -144 -370 -144q-185 0 -307 106 t-122 265zM264 363q0 -89 75 -153.5t186 -64.5q134 0 239 104l-288 346q-212 -82 -212 -232zM451 971q0 -36 24 -79.5t78 -112.5q91 43 133.5 87.5t42.5 100.5q0 58 -39 92.5t-99 34.5q-62 0 -101 -33t-39 -90z" />
<glyph unicode="'" horiz-adv-x="502" d="M146 1222h216l-45 -465h-122z" />
<glyph unicode="(" horiz-adv-x="583" d="M79 487q0 126 35 233t98 185.5t144.5 134.5t180.5 90l2 -139q-143 -61 -216 -180.5t-73 -323.5q0 -206 73 -325t216 -180l-2 -140q-99 33 -180.5 89t-144.5 135t-98 186.5t-35 234.5z" />
<glyph unicode=")" horiz-adv-x="583" d="M39 -18q143 61 216 180t73 325q0 204 -73 323.5t-216 180.5l1 139q99 -34 181 -90t145 -134.5t98 -185.5t35 -233q0 -248 -126.5 -411.5t-332.5 -233.5z" />
<glyph unicode="*" horiz-adv-x="986" d="M90 835l48 157l148 -49l191 -121l-56 221v151h161v-151l-56 -221l191 121l149 49l47 -157l-143 -51l-219 -14l166 -141l90 -126l-133 -96l-92 127l-81 206l-80 -206l-92 -127l-134 96l91 126l166 141l-218 14z" />
<glyph unicode="+" horiz-adv-x="1156" d="M80 505v149h418v407h159v-407h419v-149h-419v-408h-159v408h-418z" />
<glyph unicode="," horiz-adv-x="500" d="M117 -169q73 14 102.5 51t29.5 119h-128q-2 88 -2 235q59 6 248 6q7 -63 7 -221q0 -151 -57.5 -221t-199.5 -71v102z" />
<glyph unicode="-" horiz-adv-x="654" d="M92 357v149h475v-149h-475z" />
<glyph unicode="." horiz-adv-x="500" d="M120 0v238h247v-238h-247z" />
<glyph unicode="/" horiz-adv-x="865" d="M80 0l574 1252l128 -36l-573 -1252z" />
<glyph unicode="0" horiz-adv-x="1044" d="M86 608q0 293 110 459t325 166q216 0 326.5 -165.5t110.5 -459.5q0 -295 -110.5 -461t-326.5 -166q-215 0 -325 166.5t-110 460.5zM288 607q0 -242 54 -362.5t179 -120.5q122 0 178.5 115t56.5 369t-57 368.5t-178 114.5q-125 0 -179 -121.5t-54 -362.5z" />
<glyph unicode="1" horiz-adv-x="749" d="M104 1075v140h381v-1074h163v-141h-532v141h173v934h-185z" />
<glyph unicode="2" horiz-adv-x="996" d="M72 0q0 84 21 160.5t50.5 132t79 113.5t89.5 94.5t101 86.5q14 12 55.5 45t61 49.5t52 48.5t48 56t28.5 57t13 65q0 82 -48 129t-135 47q-113 0 -161 -69t-50 -223h-173q0 441 382 441q100 0 178 -28t124 -75.5t69.5 -105t23.5 -121.5q0 -71 -29 -133t-76.5 -109.5 t-106.5 -92t-121.5 -89.5t-117.5 -92.5t-99 -111t-63 -134.5h464v243h149v-384h-809z" />
<glyph unicode="3" horiz-adv-x="1009" d="M64 364h180q21 -231 235 -231q113 0 177 57.5t64 149.5q0 122 -87.5 169t-256.5 47v154q160 0 233 41t73 155q0 76 -52.5 125t-149.5 49q-98 0 -145 -48.5t-50 -131.5l-180 1q6 154 106 243t273 89q182 0 287.5 -86t105.5 -239q0 -92 -53.5 -165t-151.5 -101 q124 -31 188.5 -107.5t64.5 -190.5q0 -163 -121 -263t-326 -100q-188 0 -299 97.5t-115 285.5z" />
<glyph unicode="4" horiz-adv-x="954" d="M32 334v164l494 717h178v-745h176v-136h-176v-193h135v-141h-471v141h155v193h-491zM191 470h332v507z" />
<glyph unicode="5" horiz-adv-x="1005" d="M79 339h182q19 -104 73.5 -157t153.5 -53q111 0 171 69.5t60 180.5q0 125 -61 190t-161 65q-121 0 -221 -100l-114 57v624h689v-256h-156v116h-386q-24 -288 -29 -380q96 99 249 99q177 0 285.5 -113t108.5 -294q0 -81 -25 -152t-75.5 -128.5t-135 -91t-194.5 -34.5 q-184 0 -291 93t-123 265z" />
<glyph unicode="6" horiz-adv-x="1005" d="M87 598q0 298 113.5 466.5t335.5 168.5q155 0 250 -86.5t105 -232.5h-161q-16 81 -64.5 127.5t-123.5 46.5q-124 0 -192 -111t-70 -303q105 93 281 93q158 0 257 -103.5t99 -266.5q0 -187 -104.5 -301.5t-283.5 -114.5q-220 0 -331 159.5t-111 457.5zM284 524 q12 -194 67 -292.5t172 -98.5q99 0 154 69t55 179q0 105 -54.5 168t-152.5 63q-57 0 -125.5 -23t-115.5 -65z" />
<glyph unicode="7" horiz-adv-x="914" d="M76 892v323h799v-131q-150 -177 -253 -445t-110 -498h149v-141h-514v141h163q17 240 118.5 494t245.5 439h-440v-182h-158z" />
<glyph unicode="8" horiz-adv-x="1047" d="M79 334q0 109 58 185.5t174 112.5q-196 90 -196 283q0 144 110 231t296 87t296 -86.5t110 -229.5q0 -96 -46 -166t-149 -117q115 -35 173.5 -113t58.5 -187q0 -157 -116.5 -255t-324.5 -98q-215 0 -329.5 98.5t-114.5 254.5zM280 344q0 -95 66 -154.5t177 -59.5 q109 0 174.5 58.5t65.5 152.5q0 102 -64.5 159t-189.5 60q-110 -4 -169.5 -61t-59.5 -155zM305 898q0 -86 59.5 -138.5t165.5 -58.5q98 7 153.5 59.5t55.5 137.5t-56.5 136t-161.5 51q-103 0 -159.5 -50t-56.5 -137z" />
<glyph unicode="9" horiz-adv-x="1006" d="M86 817q0 189 104.5 302.5t285.5 113.5q219 0 330 -156t111 -459q0 -302 -117 -469.5t-344 -167.5q-152 1 -244.5 90.5t-99.5 236.5l166 -1q14 -83 64 -128t134 -45q116 0 181 104.5t67 312.5q-105 -102 -281 -102q-158 0 -257.5 102.5t-99.5 265.5zM271 834 q0 -101 55 -163t152 -62q57 0 126 28t116 79q-13 183 -67.5 274t-170.5 91q-101 0 -156 -68t-55 -179z" />
<glyph unicode=":" horiz-adv-x="506" d="M126 80v243h254v-243h-254zM126 621v245h254v-245h-254z" />
<glyph unicode=";" horiz-adv-x="505" d="M126 -90q77 7 105 45.5t28 124.5h-130v244l254 1v-243q0 -142 -55.5 -208t-201.5 -67v103zM126 621v245h254v-245h-254z" />
<glyph unicode="&#x3c;" horiz-adv-x="1199" d="M113 530v136l917 425v-163l-726 -329l726 -330v-164z" />
<glyph unicode="=" horiz-adv-x="1229" d="M163 248v149h902v-149h-902zM163 647v150h902v-150h-902z" />
<glyph unicode="&#x3e;" horiz-adv-x="1198" d="M139 105v164l725 330l-725 329v163l916 -425v-136z" />
<glyph unicode="?" horiz-adv-x="796" d="M44 889q0 92 31 160.5t85 107.5t118 57.5t139 18.5q154 0 257 -88t103 -231q0 -42 -10.5 -78t-24 -60t-37.5 -48t-41 -36.5t-45 -31.5q-40 -27 -63 -46.5t-52 -56.5t-45 -91t-20 -126h-139q0 94 16.5 164.5t42.5 112t58 72t64 52t58 43t42.5 54t16.5 76.5q0 82 -51.5 133 t-127.5 51q-100 0 -151 -54t-51 -155h-173zM277 0v209h195v-209h-195z" />
<glyph unicode="@" horiz-adv-x="1418" d="M52 558q0 101 28.5 198.5t86 183.5t137.5 151.5t191.5 103.5t239.5 38q119 0 217.5 -30.5t165.5 -81.5t113 -120t67 -144.5t21 -155.5q0 -94 -28.5 -181.5t-80 -156t-129 -109.5t-167.5 -41q-86 0 -101 113q-84 -113 -213 -113q-110 0 -190 86t-80 233q0 78 23.5 153.5 t68 138t116.5 101t160 38.5q134 0 194 -122l20 106h143l-102 -475l-22 -104q0 -33 24 -33q27 0 64.5 24.5t76 68t65 116t26.5 156.5q0 82 -30 156t-86 132.5t-144.5 93t-196.5 34.5q-234 0 -386 -157.5t-152 -402.5q0 -232 145 -369.5t408 -137.5q225 0 370 114l74 -88 q-182 -141 -444 -141q-138 0 -253.5 34.5t-195.5 94t-136 139.5t-82 170t-26 186zM471 530q0 -86 41 -144.5t118 -58.5q59 0 111 52.5t81 131t29 157.5q0 81 -45 129t-121 48q-66 0 -116 -49t-74 -119.5t-24 -146.5z" />
<glyph unicode="A" horiz-adv-x="1263" d="M-11 0v141h147l292 934h-118v140h641v-140h-118l296 -934h144v-141h-515v141h156l-78 295h-430l-80 -295h159v-141h-496zM448 577h347l-151 498h-41z" />
<glyph unicode="B" horiz-adv-x="1155" d="M65 0v141h155v934h-155v140h536q203 0 312.5 -84.5t109.5 -232.5q0 -91 -47 -156.5t-127 -100.5q107 -34 168.5 -110.5t61.5 -186.5q0 -52 -13 -98.5t-46 -92.5t-83.5 -79t-132 -53.5t-185.5 -20.5h-554zM439 141h138q150 0 213.5 54t63.5 159q0 94 -68 146.5t-203 52.5 h-144v-412zM439 705h117q128 0 187.5 46t59.5 137q0 96 -63 141.5t-207 45.5h-94v-370z" />
<glyph unicode="C" horiz-adv-x="1341" d="M71 606q0 281 169 454t459 173q223 0 375 -144v126h164v-383h-155q-111 242 -368 242q-186 0 -296.5 -130t-110.5 -335t107 -336.5t299 -131.5q92 0 168.5 30t136 98.5t84.5 169.5l171 -81q-117 -373 -576 -377q-153 1 -274 50.5t-197 135.5t-116 198t-40 241z" />
<glyph unicode="D" horiz-adv-x="1374" d="M61 0v141h173v934h-173v140h601q158 0 281.5 -46t200.5 -128t116.5 -190t39.5 -236q0 -290 -163 -452.5t-476 -162.5h-600zM453 141h189q114 0 199 34.5t135 98.5t74 147.5t24 187.5q0 103 -24.5 186.5t-74.5 147t-132.5 98t-192.5 34.5h-197v-934z" />
<glyph unicode="E" horiz-adv-x="1186" d="M62 0v141h158v934h-158v140h1039v-348h-166v208h-497v-379h328v116h102v-378h-102v113h-327v-406h498v214h166v-355h-1041z" />
<glyph unicode="F" horiz-adv-x="1092" d="M59 0v141h163v934h-163v140h1006v-347h-169v207h-455v-378h278v112h106v-375h-106v113h-278v-406h172v-141h-554z" />
<glyph unicode="G" horiz-adv-x="1412" d="M75 610q0 93 23 181.5t73 169t122 141t177.5 96t231.5 35.5q118 0 218 -37.5t169 -102.5v122h171v-384h-155q-55 120 -151 181.5t-226 61.5q-192 0 -303.5 -127.5t-111.5 -331.5q0 -217 113.5 -345.5t307.5 -128.5q178 4 271 83.5t98 223.5h-236v150h467 q-3 -315 -161.5 -466t-447.5 -151q-143 0 -257.5 39.5t-186 103t-119.5 148t-67.5 168t-19.5 170.5z" />
<glyph unicode="H" horiz-adv-x="1372" d="M69 0v141h146v934h-146v140h507v-140h-142v-362h505v362h-141v140h505v-140h-146v-934h146v-141h-505v141h141v419h-505v-419h142v-141h-507z" />
<glyph unicode="I" horiz-adv-x="662" d="M67 0v141h154v934h-154v140h527v-140h-154v-934h154v-141h-527z" />
<glyph unicode="J" horiz-adv-x="645" d="M-25 -83h125q74 0 100.5 42.5t26.5 120.5v995h-169v140h550v-140h-162v-987q0 -166 -69.5 -255t-230.5 -89h-171v173z" />
<glyph unicode="K" horiz-adv-x="1267" d="M62 0v141h141v934h-141v140h514v-140h-155v-425l398 425h-120v140h500v-140h-122l-416 -441l405 -493h151v-141h-544v141h124l-375 460v-460h143v-141h-503z" />
<glyph unicode="L" horiz-adv-x="1076" d="M58 0v141h169v934h-169v140h554v-140h-167v-934h409v365h180v-506h-976z" />
<glyph unicode="M" horiz-adv-x="1729" d="M62 0v141h157v934h-157v140h471l325 -836l332 836h477v-140h-156v-934h157v-141h-509v141h147v920l-428 -1061h-75l-426 1060v-919h147v-141h-462z" />
<glyph unicode="N" horiz-adv-x="1406" d="M53 0v141h173v934h-173v140h436l543 -926v786h-169v140h511v-140h-178v-1075h-216l-591 1006v-865h170v-141h-506z" />
<glyph unicode="O" horiz-adv-x="1439" d="M76 607q0 130 44 243.5t124.5 199t203 134.5t271.5 49q150 0 273.5 -49.5t204.5 -135t125 -199.5t44 -243q0 -128 -44 -241t-124.5 -198.5t-204 -135.5t-273.5 -50q-151 0 -274 49.5t-203 135.5t-123.5 199t-43.5 242zM313 605q0 -198 113 -331t293 -133q178 0 293 131 t115 334t-113.5 336t-293.5 133q-176 0 -291.5 -131.5t-115.5 -338.5z" />
<glyph unicode="P" horiz-adv-x="1124" d="M57 0v141h163v934h-158v140h544q232 0 355.5 -96t123.5 -276q0 -103 -36 -175.5t-105 -113.5t-156 -59.5t-202 -18.5h-147v-335h167v-141h-549zM439 616h138q153 0 217 57.5t64 169.5q0 108 -59.5 170t-164.5 62h-195v-459z" />
<glyph unicode="Q" horiz-adv-x="1441" d="M76 605q0 128 42.5 240.5t122 199.5t203 137.5t275.5 50.5q151 0 274.5 -50t204.5 -135.5t124.5 -199.5t43.5 -243q0 -246 -158 -417t-412 -195q208 -75 323 -75q49 0 86 9l-39 -181q-29 -7 -62 -7q-86 0 -238 52t-235 52q-134 0 -242 -73l-54 155q101 66 219 82 q-221 49 -349.5 212t-128.5 386zM314 605q0 -200 112.5 -332t293.5 -132q179 0 293.5 129.5t114.5 336.5q0 202 -113.5 335t-295.5 133q-175 0 -290 -131.5t-115 -338.5z" />
<glyph unicode="R" horiz-adv-x="1220" d="M55 0v141h170v934h-170v140h599q194 0 308.5 -78.5t114.5 -240.5q0 -248 -268 -315l242 -440h171v-141h-324l-295 557h-160v-416h160v-141h-548zM443 702h199q115 0 165.5 55t50.5 136q0 78 -53 130t-149 52h-213v-373z" />
<glyph unicode="S" horiz-adv-x="1008" d="M86 902q0 158 104.5 244.5t271.5 86.5q146 0 247 -95v77h169v-351h-169v97q-89 113 -226 113q-93 0 -147 -43t-54 -107q0 -45 22.5 -79t60.5 -56t87.5 -40t104.5 -35.5t109.5 -37t104 -48.5t87.5 -67t60.5 -96.5t22.5 -132.5q0 -107 -54.5 -188t-142 -122t-193.5 -41 q-166 0 -285 108l-1 -89h-171v407h171v-110q49 -79 110.5 -117.5t146.5 -38.5q93 0 151 51t58 129q0 29 -9 53.5t-21 43t-37.5 36t-45 28t-59 25t-63 22t-71.5 21.5q-60 18 -104.5 36t-91.5 47t-76 64.5t-48 88t-19 116.5z" />
<glyph unicode="T" horiz-adv-x="1132" d="M47 804v411h1038v-411h-160v271h-248v-934h176v-141h-573v141h178v934h-251v-271h-160z" />
<glyph unicode="U" horiz-adv-x="1265" d="M33 1075v140h508v-140h-138v-669q0 -130 58 -197.5t184 -67.5q132 0 190.5 67.5t58.5 202.5v664h-136v140h473v-140h-154v-655q0 -225 -114 -332t-324 -107q-108 0 -188.5 23.5t-130.5 63t-81 99.5t-42.5 125t-11.5 148v635h-152z" />
<glyph unicode="V" horiz-adv-x="1274" d="M-15 1075v140h521v-140h-146l296 -839l292 839h-144v140h482v-140h-150l-402 -1075h-188l-411 1075h-150z" />
<glyph unicode="W" horiz-adv-x="1837" d="M-14 1075v140h494v-140h-143l238 -793l232 793h-130v140h504v-140h-127l237 -793l236 793h-144v140h462v-140h-143l-331 -1075h-184l-270 879l-266 -879h-181l-339 1075h-145z" />
<glyph unicode="X" horiz-adv-x="1251" d="M12 0v141h170l324 474l-319 460h-162v140h532v-140h-134l218 -328l217 328h-136v140h491v-140h-162l-312 -450l338 -484h169v-141h-548v141h140l-231 351l-230 -351h142v-141h-507z" />
<glyph unicode="Y" horiz-adv-x="1216" d="M-14 1075v140h531v-140h-143l258 -389l243 389h-142v140h494v-140h-159l-348 -525v-409h171v-141h-556v141h167v408l-364 526h-152z" />
<glyph unicode="Z" horiz-adv-x="1098" d="M73 0v151l664 924h-473v-220h-159v360h901v-134l-673 -940h525v234h158v-375h-943z" />
<glyph unicode="[" horiz-adv-x="655" d="M176 -95v1363h408v-149h-195v-1065h195v-149h-408z" />
<glyph unicode="\" horiz-adv-x="865" d="M68 1224h171l564 -1243h-171z" />
<glyph unicode="]" horiz-adv-x="655" d="M74 54h196v1065h-196v149h409v-1363h-409v149z" />
<glyph unicode="^" horiz-adv-x="953" d="M101 590l303 643h174l301 -643h-181l-207 485l-209 -485h-181z" />
<glyph unicode="_" horiz-adv-x="940" d="M0 -31h941v-106h-941v106z" />
<glyph unicode="`" horiz-adv-x="579" d="M84 1266h258l123 -306h-165z" />
<glyph unicode="a" horiz-adv-x="977" d="M63 233q0 142 100.5 207.5t270.5 65.5q82 0 192 -21v86q0 79 -50.5 119t-132.5 40q-79 0 -135 -23t-104 -71l-101 112q121 118 358 118q361 0 361 -292v-433h147v-141h-325l-9 88q-77 -59 -141.5 -83t-140.5 -24q-129 0 -209.5 74.5t-80.5 177.5zM250 239 q0 -55 39.5 -91.5t105.5 -36.5q127 0 231 86v171q-9 1 -75.5 9t-104.5 8q-196 0 -196 -146z" />
<glyph unicode="b" horiz-adv-x="1131" d="M27 1075v140h346v-465q64 60 133 88t157 28q181 0 292.5 -123.5t111.5 -309.5q0 -202 -115.5 -327t-289.5 -125q-85 0 -164 32t-126 91l-1 -104h-340v141h143v934h-147zM373 253q19 -21 43.5 -42.5t80 -47.5t111.5 -26q117 0 184.5 77.5t67.5 204.5q0 128 -68.5 209.5 t-185.5 81.5q-44 0 -85.5 -15t-71.5 -37.5t-47.5 -39.5t-28.5 -31v-334z" />
<glyph unicode="c" horiz-adv-x="969" d="M59 423q0 189 121.5 316t308.5 127q73 0 135.5 -27.5t100.5 -69.5l-1 80h163v-314h-157q-47 176 -217 176q-117 0 -182.5 -76.5t-65.5 -206.5q0 -134 65.5 -212.5t182.5 -78.5q80 0 148 35.5t110 101.5l133 -85q-122 -208 -394 -208q-110 0 -198.5 37.5t-142 100.5 t-82 141t-28.5 163z" />
<glyph unicode="d" horiz-adv-x="1131" d="M66 428q0 187 112.5 312.5t293.5 125.5q162 0 287 -113v322h-158v140h355v-1074h146v-141h-345v98q-110 -117 -286 -117q-81 0 -153.5 29.5t-129 84.5t-89.5 141t-33 192zM271 419q0 -125 67.5 -203.5t184.5 -78.5q122 0 235 113v338q-113 123 -237 123 q-117 0 -183.5 -81t-66.5 -211z" />
<glyph unicode="e" horiz-adv-x="1017" d="M61 420q0 194 132 320t334 126q204 0 315.5 -135t111.5 -348h-686q8 -114 78.5 -182.5t198.5 -68.5q72 0 142.5 28.5t122.5 80.5l108 -104q-57 -74 -155.5 -115t-226.5 -41q-216 0 -345.5 123.5t-129.5 315.5zM271 501h492q-14 99 -75.5 159.5t-161.5 60.5 q-109 0 -173.5 -58.5t-81.5 -161.5z" />
<glyph unicode="f" horiz-adv-x="605" d="M59 709v140h130v102q0 282 270 282q232 0 232 -224h-155q0 45 -20 66t-50 21q-43 0 -61 -34t-18 -114v-99h155v-140h-155v-568h158v-141h-482v141h126v568h-130z" />
<glyph unicode="g" horiz-adv-x="1127" d="M60 425q0 188 113 314.5t295 126.5q161 0 284 -116v99h348v-140h-150v-746q0 -311 -436 -311q-227 0 -348 100l88 117q104 -80 243 -80q111 0 183.5 41.5t72.5 123.5v135q-49 -47 -127.5 -74t-160.5 -27q-175 0 -290 121t-115 316zM264 419q0 -122 67.5 -198.5 t185.5 -76.5q121 0 235 109v337q-106 121 -233 121q-118 0 -186.5 -81t-68.5 -211z" />
<glyph unicode="h" horiz-adv-x="1093" d="M31 0v141h151v934h-149v140h345v-446q144 97 290 97q129 0 196.5 -72t67.5 -203v-450h131v-141h-420v141h94v412q0 158 -127 158q-108 0 -232 -80v-490h125v-141h-472z" />
<glyph unicode="i" horiz-adv-x="571" d="M67 0v141h137v568h-137v140h333v-708h137v-141h-470zM188 1119q0 45 33 76.5t80 31.5q49 0 82 -31.5t33 -76.5q0 -46 -33 -77t-82 -31q-47 0 -80 31t-33 77z" />
<glyph unicode="j" horiz-adv-x="523" d="M-48 -186h96q76 0 104.5 39.5t28.5 133.5v722h-167v140h365v-802q0 -56 -2.5 -95t-10 -82.5t-22 -73t-39 -57.5t-59 -44.5t-84.5 -26.5t-114 -10h-96v156zM161 1119q0 45 33 76.5t81 31.5q47 0 81 -31.5t34 -76.5t-33.5 -76.5t-81.5 -31.5q-49 0 -81.5 31t-32.5 77z" />
<glyph unicode="k" horiz-adv-x="1088" d="M34 1075v140h347v-766l319 260h-145v140h486v-140h-139l-313 -269l325 -299h139v-141h-445v141h84l-311 287v-287h110v-141h-456v141h151v934h-152z" />
<glyph unicode="l" horiz-adv-x="556" d="M36 0v141h151v934h-149v140h345v-1074h135v-141h-482z" />
<glyph unicode="m" horiz-adv-x="1687" d="M52 0v141h157v568h-152v140h347l2 -106q152 123 291 123q168 0 240 -140q94 73 168 106.5t156 33.5q126 0 195.5 -72.5t69.5 -198.5v-458h131v-137h-442v137h116v391q0 91 -29.5 137t-101.5 46q-59 0 -121.5 -35.5t-111.5 -87.5v-447h125v-141h-432v141h109v382 q0 98 -29 143t-101 45q-57 0 -109 -28t-124 -90v-452h126v-141h-480z" />
<glyph unicode="n" horiz-adv-x="1105" d="M61 709v140h344q0 -76 2 -104q152 121 285 121q112 0 182.5 -73t70.5 -207l-1 -445h143v-141h-432v141h94v394q0 89 -25.5 132.5t-85.5 43.5q-116 0 -231 -118v-452h121v-141h-463v141h144v568h-148z" />
<glyph unicode="o" horiz-adv-x="1029" d="M63 424q0 194 127 318t325 124q200 0 326 -124.5t126 -317.5q0 -192 -125.5 -317.5t-328.5 -125.5q-201 0 -325.5 125t-124.5 318zM268 423q0 -128 66.5 -207t179.5 -79t179.5 79t66.5 208t-66.5 208t-180.5 79q-113 0 -179 -79.5t-66 -208.5z" />
<glyph unicode="p" horiz-adv-x="1122" d="M28 -180h147v889h-147v140h340l3 -103q123 120 288 120q181 0 292.5 -125t111.5 -313q0 -199 -116 -323t-289 -124q-83 0 -158.5 29t-128.5 83v-273h168v-150h-511v150zM371 245q117 -108 236 -108q118 0 185.5 78.5t67.5 203.5q0 128 -68.5 210t-185.5 82 q-129 0 -235 -121v-345z" />
<glyph unicode="q" horiz-adv-x="1125" d="M60 429q0 188 113 312.5t299 124.5q162 0 279 -120l2 103h343v-140h-147v-890h147v-149h-511v149h166v275q-53 -55 -128 -84t-158 -29q-174 0 -289.5 124t-115.5 324zM263 419q0 -125 67.5 -203.5t184.5 -78.5q43 0 84.5 13.5t72.5 36t48 37t31 29.5v334q-12 15 -29 31.5 t-47.5 39.5t-71.5 38t-83 15q-122 0 -189.5 -81.5t-67.5 -210.5z" />
<glyph unicode="r" horiz-adv-x="806" d="M61 0v141h165v568h-165v140h335l1 -192q51 113 127.5 161t187.5 48q4 0 69 -5l-2 -180q-3 3 -69 3q-151 0 -219.5 -76.5t-68.5 -228.5v-238h180v-141h-541z" />
<glyph unicode="s" horiz-adv-x="873" d="M77 621q0 105 87.5 175t226.5 70q130 0 209 -70v53h162v-264h-162v69q-64 75 -187 75q-74 0 -116.5 -25.5t-42.5 -71.5q0 -30 24 -50.5t63 -32t89 -23.5t102 -22.5t102 -32t89 -50t63 -77.5t24 -114q0 -111 -90.5 -180t-243.5 -69q-147 0 -233 70v-51h-156v283h156v-67 q28 -46 82.5 -71.5t126.5 -25.5q85 0 131 27t46 78q0 36 -30.5 59.5t-79 37t-107.5 25.5t-118 30.5t-107.5 46t-79 78t-30.5 120.5z" />
<glyph unicode="t" horiz-adv-x="596" d="M36 709v140h126v262l195 45v-307h203v-140h-203v-450q0 -65 14.5 -91.5t52.5 -26.5h145v-141h-184q-225 0 -225 248v461h-124z" />
<glyph unicode="u" horiz-adv-x="1087" d="M26 709v140h324v-557q0 -79 28 -117t93 -38q117 0 224 122v450h-141v140h339v-708h147v-141h-341l-4 96q-135 -115 -275 -115q-135 0 -201 75t-66 213v440h-127z" />
<glyph unicode="v" horiz-adv-x="1022" d="M-3 709v140h457v-140h-112q148 -416 184 -500l192 500h-117v140h424v-140h-133l-287 -709h-171l-292 709h-145z" />
<glyph unicode="w" horiz-adv-x="1418" d="M8 709v140h374v-140h-88l157 -508l156 508h-101v140h414v-140h-100l164 -512l145 512h-98v140h374v-140h-98l-233 -709h-185l-180 547l-178 -547h-185l-245 709h-93z" />
<glyph unicode="x" horiz-adv-x="1036" d="M37 0v141h129l245 288l-237 280h-123v140h425v-140h-80l126 -157l125 157h-78v140h413v-140h-135l-226 -269l255 -299h119v-141h-437v141h95l-145 175l-139 -175h92v-141h-424z" />
<glyph unicode="y" horiz-adv-x="1049" d="M2 709v140h451v-140h-106l198 -534l176 534h-113v140h432v-140h-131l-259 -732q-55 -154 -81 -201q-51 -93 -139 -121q-54 -18 -133 -18h-118v157h98q41 0 63.5 4t45.5 18.5t39 44t32 80.5l31 104h-69l-289 664h-128z" />
<glyph unicode="z" horiz-adv-x="906" d="M60 0v135l535 580h-349v-153h-146v287h729v-139l-539 -577h387v165h151v-298h-768z" />
<glyph unicode="{" horiz-adv-x="579" d="M31 495v143q97 0 130.5 66t33.5 207q0 178 15 244q27 118 124 154q52 19 127 19h82v-133q-60 0 -92 -5.5t-54 -25t-28.5 -51.5t-6.5 -90q0 -232 -26 -319.5t-121 -137.5q85 -45 115 -126.5t30 -258.5q0 -141 11 -177q13 -45 59 -58q33 -9 113 -9v-133h-81q-56 0 -98.5 11 t-70.5 26.5t-47 48.5t-29 59t-15 77.5t-6 85.5t-1 100q0 59 -3 99t-13 77.5t-28 59t-47.5 34.5t-72.5 13z" />
<glyph unicode="|" horiz-adv-x="646" d="M243 -251v1478h160v-1478h-160z" />
<glyph unicode="}" horiz-adv-x="579" d="M31 -63q29 0 49.5 0.5t39.5 4.5t31.5 6t23.5 12t17 15.5t11 23.5t7 29.5t3.5 39.5t1.5 47v59q0 181 29.5 263.5t115.5 128.5q-95 50 -121 137.5t-26 319.5q0 110 -34 141t-148 31v133h83q56 0 98 -11.5t70.5 -27t47.5 -49.5t29 -60t14.5 -78.5t5.5 -86t1 -99.5 q0 -56 3.5 -96t14 -76.5t28 -58.5t47 -34.5t70.5 -12.5v-143q-42 0 -71.5 -13t-47.5 -34.5t-28 -59t-13 -77.5t-3 -99q0 -66 -1 -100t-6 -85.5t-15 -77.5t-29 -59t-47 -48.5t-70.5 -26.5t-98.5 -11h-82v133z" />
<glyph unicode="~" horiz-adv-x="1122" d="M87 627q105 130 254 130q58 0 125.5 -20t118.5 -43.5t111.5 -43.5t105.5 -20q110 0 211 101l27 -143q-108 -127 -245 -127q-55 0 -121.5 21.5t-118 46.5t-115.5 46.5t-115 21.5q-59 0 -109 -26t-106 -82z" />
<glyph unicode="&#xa1;" horiz-adv-x="541" d="M149 987v242h224l20 -242h-244zM170 7v316l49 497h109l45 -497v-316h-203z" />
<glyph unicode="&#xa2;" horiz-adv-x="969" d="M59 423q0 189 121.5 316t308.5 127q49 0 96 -14l124 375l79 -24l-128 -383q37 -21 65 -51l-1 80h163v-314h-157q-29 113 -113 154l-181 -542q34 -10 77 -10q80 0 148 35.5t110 101.5l133 -85q-122 -208 -394 -208q-66 0 -125 14l-109 -330l-78 23l110 332 q-121 53 -185 162.5t-64 240.5zM265 428q0 -169 98 -244l174 526q-4 0 -12 0.5t-12 0.5q-117 0 -182.5 -76.5t-65.5 -206.5z" />
<glyph unicode="&#xa3;" horiz-adv-x="1049" d="M35 169q0 82 60 144t159 62q83 0 161 -66q3 11 3 35q0 98 -79 215h-222v133h149q-48 101 -48 209q0 156 98.5 244t269.5 88q163 0 252 -92t89 -251h-171q0 190 -163 190q-95 0 -146.5 -44t-51.5 -126q0 -80 74 -218h386v-133h-325q39 -81 39 -160t-36 -167 q42 -26 65 -38.5t58 -25t64 -12.5q74 0 97.5 38t29.5 131h127q0 -178 -54 -260.5t-200 -82.5q-67 0 -129 29t-134 85q-84 -114 -196 -114q-109 0 -167.5 55t-58.5 132zM192 172q0 -21 14.5 -38t35.5 -17q20 0 49 16q22 58 29 79q-32 21 -60 21q-30 0 -49 -17.5t-19 -43.5z " />
<glyph unicode="&#xa4;" horiz-adv-x="929" d="M116 519l82 82q-75 89 -75 205t73 201l-80 81l69 69l86 -86q88 53 193 53q108 0 194 -55l88 88l69 -69l-83 -83q72 -84 72 -199t-74 -203l85 -84l-69 -68l-90 88q-85 -53 -192 -53q-104 0 -191 52l-88 -87zM261 805q0 -85 57 -145t146 -60q90 0 146 59.5t56 144.5 q0 84 -56.5 143t-145.5 59q-90 0 -146.5 -58.5t-56.5 -142.5z" />
<glyph unicode="&#xa5;" horiz-adv-x="1221" d="M22 1032v121h472v-123h-150l274 -391l257 392h-150v122h460v-123h-156l-280 -408h211v-119h-274v-89h274v-117h-274v-175h164v-122h-483v123h159v174h-277v117h277v89h-277v119h211l-292 410h-146z" />
<glyph unicode="&#xa6;" horiz-adv-x="414" d="M147 -221v545h122v-545h-122zM147 670v545h122v-545h-122z" />
<glyph unicode="&#xa7;" horiz-adv-x="891" d="M106 618q0 54 29.5 98.5t77.5 69.5q-71 75 -71 196q0 123 90 193t234 70q140 0 216 -51.5t76 -135.5q0 -52 -41 -84.5t-114 -32.5q0 40 -6.5 75t-22 67.5t-45.5 52t-71 19.5q-70 0 -111 -40.5t-41 -113.5q0 -22 5 -40.5t11 -32t23 -28.5t27 -23.5t37.5 -23t41.5 -21.5 t51 -24q180 -87 253.5 -157.5t73.5 -172.5q0 -58 -30 -111.5t-75 -81.5q58 -74 58 -175q0 -134 -85.5 -214.5t-244.5 -80.5q-71 0 -127 12.5t-91.5 33t-58.5 48t-32 56.5t-9 60q0 62 40 95.5t106 33.5q0 -112 50.5 -181.5t143.5 -69.5q78 0 122.5 43t44.5 116q0 36 -9.5 60 t-41 52.5t-84 58.5t-147.5 77q-136 66 -194.5 138.5t-58.5 169.5zM252 660q0 -66 46.5 -108t184.5 -110q103 -51 164 -92q22 31 22 71q0 58 -42.5 105.5t-157.5 103.5q-153 75 -191 102q-26 -29 -26 -72z" />
<glyph unicode="&#xa8;" horiz-adv-x="661" d="M57 1030v185h187v-185h-187zM422 1030v185h187v-185h-187z" />
<glyph unicode="&#xa9;" horiz-adv-x="1470" d="M74 606q0 120 41.5 230.5t119 200t203 143t280.5 53.5q125 0 232 -35t182.5 -95.5t129 -140.5t79 -170.5t25.5 -185.5t-25.5 -185t-78.5 -170t-128.5 -140t-182.5 -95t-233 -35q-125 0 -232 35t-181.5 95t-127.5 140t-78 170t-25 185zM233 603q0 -95 31 -183t89 -158.5 t152.5 -113t212.5 -42.5t213 42.5t154 113t90 158.5t31 183q0 76 -19.5 149t-59.5 137.5t-97 113.5t-137.5 77.5t-174.5 28.5q-116 0 -210.5 -43.5t-153.5 -116t-90 -161.5t-31 -185zM390 614q0 139 89.5 232t227.5 93q54 0 99.5 -20.5t73.5 -50.5l-1 58h120v-230h-115 q-37 129 -160 129q-87 0 -135 -56t-48 -152q0 -98 48.5 -155.5t134.5 -57.5q128 0 189 101l99 -64q-88 -152 -291 -152q-107 0 -184 48t-112 120t-35 157z" />
<glyph unicode="&#xaa;" horiz-adv-x="696" d="M61 787q0 87 62 131.5t163 44.5q67 0 146 -29v70q0 51 -34 78t-95 27q-89 0 -134 -65l-88 49q74 101 235 101q104 0 163 -46t59 -133v-297h98v-86h-194v62q-89 -73 -188 -73q-84 0 -138.5 48t-54.5 118zM165 788q0 -39 28.5 -63.5t77.5 -24.5q90 0 161 63v93 q-76 31 -137 31q-130 0 -130 -99z" />
<glyph unicode="&#xab;" horiz-adv-x="1135" d="M139 506v100l315 359h128l-207 -410l207 -410h-128zM559 506v100l314 359h128l-206 -410l206 -410h-128z" />
<glyph unicode="&#xac;" horiz-adv-x="1113" d="M56 722v141h937v-534h-117v393h-820z" />
<glyph unicode="&#xad;" horiz-adv-x="1707" />
<glyph unicode="&#xae;" horiz-adv-x="1444" d="M77 606q0 185 88 329.5t234 221t323 76.5q132 0 250.5 -45t206 -125.5t139 -199t51.5 -257.5t-51.5 -257t-139.5 -198t-206 -125t-250 -45q-177 0 -323 76t-234 220t-88 329zM215 603q0 -151 68.5 -269.5t183.5 -181.5t255 -63t255 63t184 181.5t69 269.5 q0 153 -69 273.5t-184.5 184.5t-254.5 64q-214 0 -360.5 -145.5t-146.5 -376.5zM438 307v74h87v480h-87v74h308q100 0 158.5 -40.5t58.5 -124.5q0 -128 -138 -163l125 -226h88v-74h-166l-152 287h-82v-213h82v-74h-282zM638 672h102q60 0 85.5 27.5t25.5 68.5t-27.5 67 t-76.5 26h-109v-189z" />
<glyph unicode="&#xaf;" horiz-adv-x="593" d="M131 1086v85h326v-85h-326z" />
<glyph unicode="&#xb0;" horiz-adv-x="653" d="M64 944q0 104 72 179.5t191 75.5t191 -75.5t72 -179.5q0 -105 -71.5 -180.5t-191.5 -75.5t-191.5 75.5t-71.5 180.5zM161 945q0 -69 44.5 -118.5t121.5 -49.5q76 0 121 49t45 119q0 67 -44.5 117.5t-121.5 50.5q-76 0 -121 -49.5t-45 -118.5z" />
<glyph unicode="&#xb1;" horiz-adv-x="1145" d="M133 0v145h879v-145h-879zM133 659v146h365v366h147v-366h367v-146h-367v-366h-147v366h-365z" />
<glyph unicode="&#xb2;" horiz-adv-x="939" d="M175 349q0 73 19 135t56.5 114t72.5 87t88 79q12 10 41.5 33.5t45 36t38.5 35.5t35 41t21.5 42t9.5 48q0 58 -34 92t-96 34q-82 0 -116 -49t-36 -160h-123q0 316 273 316q139 0 210.5 -69.5t71.5 -166.5q0 -52 -20.5 -97t-55 -79t-76.5 -65.5t-86.5 -63.5t-84 -65 t-71 -77.5t-44.5 -94.5h331v169h107v-275h-577z" />
<glyph unicode="&#xb3;" horiz-adv-x="957" d="M177 606l129 1q16 -168 169 -168q81 0 127.5 42t46.5 108q0 86 -59.5 121t-188.5 35v111q119 0 169.5 30.5t50.5 105.5q0 58 -37.5 94t-107.5 36q-136 0 -141 -133l-129 8q5 109 77 173t192 64q133 0 210 -62t77 -173q0 -67 -39 -120t-110 -74q89 -22 136 -77t47 -136 q0 -118 -87 -189.5t-235 -71.5q-135 0 -214.5 69.5t-82.5 205.5z" />
<glyph unicode="&#xb4;" horiz-adv-x="579" d="M102 960l124 306h258l-216 -306h-166z" />
<glyph unicode="&#xb6;" horiz-adv-x="1096" d="M50 826q0 156 104 258t297 102h569v-137h-138v-1402h-135v1402h-201v-1402h-135v821q-168 6 -264.5 105.5t-96.5 252.5z" />
<glyph unicode="&#xb7;" horiz-adv-x="414" d="M86 446v211h227v-211h-227z" />
<glyph unicode="&#xb8;" horiz-adv-x="587" d="M152 -273q23 -4 47 -4q118 0 118 61q0 53 -89 59l39 162h72l-17 -97q55 -9 86 -40t31 -79q0 -66 -54.5 -108.5t-162.5 -42.5q-50 0 -70 4v85z" />
<glyph unicode="&#xb9;" horiz-adv-x="607" d="M104 1112v103h270v-764h116v-103h-378v103h123v661h-131z" />
<glyph unicode="&#xba;" horiz-adv-x="704" d="M68 934q0 114 81.5 189t203.5 75t203 -75t81 -189q0 -113 -81 -188.5t-203 -75.5t-203.5 75.5t-81.5 188.5zM180 934q0 -72 49.5 -120.5t123.5 -48.5q73 0 122 48.5t49 120.5t-49 119.5t-122 47.5q-74 0 -123.5 -47.5t-49.5 -119.5z" />
<glyph unicode="&#xbb;" horiz-adv-x="1135" d="M145 145l207 410l-207 410h127l316 -359v-100l-316 -361h-127zM565 145l206 410l-206 410h127l315 -359v-100l-315 -361h-127z" />
<glyph unicode="&#xbc;" horiz-adv-x="1751" d="M106 1112v103h270v-764h116v-103h-378v103h123v661h-131zM488 0l574 1252l128 -36l-573 -1252zM1046 242v121l345 502h137v-520h124v-103h-124v-135h95v-107h-339v107h118v135h-356zM1169 345h233v344z" />
<glyph unicode="&#xbd;" horiz-adv-x="1795" d="M104 1112v103h270v-764h116v-103h-378v103h123v661h-131zM488 0l574 1252l128 -36l-573 -1252zM1116 0q0 73 19 135t56.5 114t72.5 87t88 79q12 10 41.5 33.5t45 36t38.5 35.5t35 41t21.5 42t9.5 48q0 58 -34 92t-96 34q-82 0 -116 -49t-36 -160h-123q0 316 273 316 q139 0 210.5 -69.5t71.5 -166.5q0 -52 -20.5 -97t-55 -79t-76.5 -65.5t-86.5 -63.5t-84 -65t-71 -77.5t-44.5 -94.5h331v169h107v-275h-577z" />
<glyph unicode="&#xbe;" horiz-adv-x="2008" d="M177 606l129 1q16 -168 169 -168q81 0 127.5 42t46.5 108q0 86 -59.5 121t-188.5 35v111q119 0 169.5 30.5t50.5 105.5q0 58 -37.5 94t-107.5 36q-136 0 -141 -133l-129 8q5 109 77 173t192 64q133 0 210 -62t77 -173q0 -67 -39 -120t-110 -74q89 -22 136 -77t47 -136 q0 -118 -87 -189.5t-235 -71.5q-135 0 -214.5 69.5t-82.5 205.5zM752 0l574 1252l128 -36l-573 -1252zM1280 242v121l345 502h137v-520h124v-103h-124v-135h95v-107h-339v107h118v135h-356zM1403 345h233v344z" />
<glyph unicode="&#xbf;" horiz-adv-x="796" d="M19 282q0 42 10.5 78t24 60t37.5 48t41 36.5t45 31.5q40 27 63 46.5t52 56.5t45 91t20 126h139q0 -94 -16.5 -164.5t-42.5 -112t-58 -72t-64 -52t-58 -43t-42.5 -54t-16.5 -76.5q0 -82 51.5 -133t127.5 -51q100 0 151 54t51 155h173q0 -92 -31 -160.5t-85 -107.5 t-118 -57.5t-139 -18.5q-154 0 -257 88t-103 231zM324 987v209h195v-209h-195z" />
<glyph unicode="&#xc0;" horiz-adv-x="1263" d="M-11 0v141h147l292 934h-118v140h641v-140h-118l296 -934h144v-141h-515v141h156l-78 295h-430l-80 -295h159v-141h-496zM441 1634h258l123 -306h-165zM448 577h347l-151 498h-41z" />
<glyph unicode="&#xc1;" horiz-adv-x="1263" d="M-11 0v141h147l292 934h-118v140h641v-140h-118l296 -934h144v-141h-515v141h156l-78 295h-430l-80 -295h159v-141h-496zM440 1326l124 306h258l-216 -306h-166zM448 577h347l-151 498h-41z" />
<glyph unicode="&#xc2;" horiz-adv-x="1263" d="M-11 0v141h147l292 934h-118v140h641v-140h-118l296 -934h144v-141h-515v141h156l-78 295h-430l-80 -295h159v-141h-496zM353 1325l134 329h283l140 -329h-180l-101 252l-101 -252h-175zM448 577h347l-151 498h-41z" />
<glyph unicode="&#xc3;" horiz-adv-x="1263" d="M-11 0v141h147l292 934h-118v140h641v-140h-118l296 -934h144v-141h-515v141h156l-78 295h-430l-80 -295h159v-141h-496zM339 1339q8 105 53.5 157t110.5 52q50 0 138 -33.5t121 -33.5q44 0 56 62h106q-7 -100 -50.5 -156.5t-116.5 -56.5q-55 0 -140 34.5t-116 34.5 q-25 0 -37 -14.5t-17 -45.5h-108zM448 577h347l-151 498h-41z" />
<glyph unicode="&#xc4;" horiz-adv-x="1263" d="M-11 0v141h147l292 934h-118v140h641v-140h-118l296 -934h144v-141h-515v141h156l-78 295h-430l-80 -295h159v-141h-496zM355 1396v185h187v-185h-187zM448 577h347l-151 498h-41zM720 1396v185h187v-185h-187z" />
<glyph unicode="&#xc5;" horiz-adv-x="1263" d="M-11 0v141h147l292 934h-118v140h641v-140h-118l296 -934h144v-141h-515v141h156l-78 295h-430l-80 -295h159v-141h-496zM448 577h347l-151 498h-41zM449 1444q0 69 49 117.5t133 48.5t133.5 -48.5t49.5 -117.5q0 -71 -50.5 -121.5t-132.5 -50.5t-132 50.5t-50 121.5z M528 1442q0 -41 28 -70t75 -29q48 0 76 29t28 70t-28 70t-76 29q-47 0 -75 -29t-28 -70z" />
<glyph unicode="&#xc6;" horiz-adv-x="1877" d="M-11 0v141h146l550 934h-108v140h1215v-348h-166v208h-499v-379h330v116h102v-378h-102v113h-329v-406h500v214h166v-355h-1037v141h154v295h-387l-162 -295h139v-141h-512zM603 577h308v498h-24z" />
<glyph unicode="&#xc7;" horiz-adv-x="1252" d="M72 606q0 281 169 454t459 173q223 0 375 -144v126h164v-383h-155q-111 242 -368 242q-186 0 -296.5 -130t-110.5 -335t107 -336.5t299 -131.5q92 0 168.5 30t136 98.5t84.5 169.5l171 -81q-117 -373 -576 -377q-153 1 -274 50.5t-197 135.5t-116 198t-40 241zM485 -273 q23 -4 47 -4q118 0 118 61q0 53 -89 59l39 162h72l-17 -97q55 -9 86 -40t31 -79q0 -66 -54.5 -108.5t-162.5 -42.5q-50 0 -70 4v85z" />
<glyph unicode="&#xc8;" horiz-adv-x="1186" d="M62 0v141h158v934h-158v140h1039v-348h-166v208h-497v-379h328v116h102v-378h-102v113h-327v-406h498v214h166v-355h-1041zM402 1632h258l123 -306h-165z" />
<glyph unicode="&#xc9;" horiz-adv-x="1186" d="M62 0v141h158v934h-158v140h1039v-348h-166v208h-497v-379h328v116h102v-378h-102v113h-327v-406h498v214h166v-355h-1041zM402 1326l124 306h258l-216 -306h-166z" />
<glyph unicode="&#xca;" horiz-adv-x="1186" d="M62 0v141h158v934h-158v140h1039v-348h-166v208h-497v-379h328v116h102v-378h-102v113h-327v-406h498v214h166v-355h-1041zM314 1325l134 329h283l140 -329h-180l-101 252l-101 -252h-175z" />
<glyph unicode="&#xcb;" horiz-adv-x="1186" d="M62 0v141h158v934h-158v140h1039v-348h-166v208h-497v-379h328v116h102v-378h-102v113h-327v-406h498v214h166v-355h-1041zM318 1396v185h187v-185h-187zM683 1396v185h187v-185h-187z" />
<glyph unicode="&#xcc;" horiz-adv-x="662" d="M67 0v141h154v934h-154v140h527v-140h-154v-934h154v-141h-527zM140 1632h258l123 -306h-165z" />
<glyph unicode="&#xcd;" horiz-adv-x="662" d="M67 0v141h154v934h-154v140h527v-140h-154v-934h154v-141h-527zM140 1326l124 306h258l-216 -306h-166z" />
<glyph unicode="&#xce;" horiz-adv-x="662" d="M52 1325l134 329h283l140 -329h-180l-101 252l-101 -252h-175zM67 0v141h154v934h-154v140h527v-140h-154v-934h154v-141h-527z" />
<glyph unicode="&#xcf;" horiz-adv-x="662" d="M56 1396v185h187v-185h-187zM67 0v141h154v934h-154v140h527v-140h-154v-934h154v-141h-527zM421 1396v185h187v-185h-187z" />
<glyph unicode="&#xd0;" horiz-adv-x="1374" d="M61 0v141h173v404h-144v149h144v381h-173v140h601q158 0 281.5 -46t200.5 -128t116.5 -190t39.5 -236q0 -290 -163 -452.5t-476 -162.5h-600zM453 141h189q114 0 199 34.5t135 98.5t74 147.5t24 187.5q0 103 -24.5 186.5t-74.5 147t-132.5 98t-192.5 34.5h-197v-381h181 v-149h-181v-404z" />
<glyph unicode="&#xd1;" horiz-adv-x="1406" d="M53 0v141h173v934h-173v140h436l543 -926v786h-169v140h511v-140h-178v-1075h-216l-591 1006v-865h170v-141h-506zM410 1339q8 105 53.5 157t110.5 52q50 0 138 -33.5t121 -33.5q44 0 56 62h106q-7 -100 -50.5 -156.5t-116.5 -56.5q-54 0 -140 34.5t-116 34.5 q-25 0 -37 -14.5t-17 -45.5h-108z" />
<glyph unicode="&#xd2;" horiz-adv-x="1439" d="M76 607q0 130 44 243.5t124.5 199t203 134.5t271.5 49q150 0 273.5 -49.5t204.5 -135t125 -199.5t44 -243q0 -128 -44 -241t-124.5 -198.5t-204 -135.5t-273.5 -50q-151 0 -274 49.5t-203 135.5t-123.5 199t-43.5 242zM313 605q0 -198 113 -331t293 -133q178 0 293 131 t115 334t-113.5 336t-293.5 133q-176 0 -291.5 -131.5t-115.5 -338.5zM529 1632h258l123 -306h-165z" />
<glyph unicode="&#xd3;" horiz-adv-x="1439" d="M76 607q0 130 44 243.5t124.5 199t203 134.5t271.5 49q150 0 273.5 -49.5t204.5 -135t125 -199.5t44 -243q0 -128 -44 -241t-124.5 -198.5t-204 -135.5t-273.5 -50q-151 0 -274 49.5t-203 135.5t-123.5 199t-43.5 242zM313 605q0 -198 113 -331t293 -133q178 0 293 131 t115 334t-113.5 336t-293.5 133q-176 0 -291.5 -131.5t-115.5 -338.5zM528 1326l124 306h258l-216 -306h-166z" />
<glyph unicode="&#xd4;" horiz-adv-x="1439" d="M76 607q0 130 44 243.5t124.5 199t203 134.5t271.5 49q150 0 273.5 -49.5t204.5 -135t125 -199.5t44 -243q0 -128 -44 -241t-124.5 -198.5t-204 -135.5t-273.5 -50q-151 0 -274 49.5t-203 135.5t-123.5 199t-43.5 242zM313 605q0 -198 113 -331t293 -133q178 0 293 131 t115 334t-113.5 336t-293.5 133q-176 0 -291.5 -131.5t-115.5 -338.5zM441 1325l134 329h283l140 -329h-180l-101 252l-101 -252h-175z" />
<glyph unicode="&#xd5;" horiz-adv-x="1439" d="M76 607q0 130 44 243.5t124.5 199t203 134.5t271.5 49q150 0 273.5 -49.5t204.5 -135t125 -199.5t44 -243q0 -128 -44 -241t-124.5 -198.5t-204 -135.5t-273.5 -50q-151 0 -274 49.5t-203 135.5t-123.5 199t-43.5 242zM313 605q0 -198 113 -331t293 -133q178 0 293 131 t115 334t-113.5 336t-293.5 133q-176 0 -291.5 -131.5t-115.5 -338.5zM427 1339q8 105 53.5 157t110.5 52q50 0 138 -33.5t121 -33.5q44 0 56 62h106q-7 -100 -50.5 -156.5t-116.5 -56.5q-55 0 -140 34.5t-116 34.5q-25 0 -37 -14.5t-17 -45.5h-108z" />
<glyph unicode="&#xd6;" horiz-adv-x="1439" d="M76 607q0 130 44 243.5t124.5 199t203 134.5t271.5 49q150 0 273.5 -49.5t204.5 -135t125 -199.5t44 -243q0 -128 -44 -241t-124.5 -198.5t-204 -135.5t-273.5 -50q-151 0 -274 49.5t-203 135.5t-123.5 199t-43.5 242zM313 605q0 -198 113 -331t293 -133q178 0 293 131 t115 334t-113.5 336t-293.5 133q-176 0 -291.5 -131.5t-115.5 -338.5zM444 1396v185h187v-185h-187zM809 1396v185h187v-185h-187z" />
<glyph unicode="&#xd7;" horiz-adv-x="929" d="M129 241l255 249l-250 247l85 85l250 -246l256 250l82 -83l-255 -250l250 -245l-85 -85l-251 245l-254 -249z" />
<glyph unicode="&#xd8;" horiz-adv-x="1439" d="M76 607q0 130 44 243.5t124.5 199t203 134.5t271.5 49q146 0 266 -46l71 119l108 -55l-70 -118q130 -83 201 -222t71 -305q0 -128 -44 -241t-124.5 -198.5t-204 -135.5t-273.5 -50q-146 0 -270 47l-77 -129l-108 55l77 128q-128 83 -197 221t-69 304zM313 605 q0 -105 34.5 -196.5t96.5 -155.5l451 782q-83 40 -175 40q-176 0 -291.5 -131.5t-115.5 -338.5zM542 181q80 -40 177 -40q178 0 293 131t115 334q0 110 -35 203t-99 156z" />
<glyph unicode="&#xd9;" horiz-adv-x="1265" d="M33 1075v140h508v-140h-138v-669q0 -130 58 -197.5t184 -67.5q132 0 190.5 67.5t58.5 202.5v664h-136v140h473v-140h-154v-655q0 -225 -114 -332t-324 -107q-108 0 -188.5 23.5t-130.5 63t-81 99.5t-42.5 125t-11.5 148v635h-152zM441 1634h258l123 -306h-165z" />
<glyph unicode="&#xda;" horiz-adv-x="1265" d="M33 1075v140h508v-140h-138v-669q0 -130 58 -197.5t184 -67.5q132 0 190.5 67.5t58.5 202.5v664h-136v140h473v-140h-154v-655q0 -225 -114 -332t-324 -107q-108 0 -188.5 23.5t-130.5 63t-81 99.5t-42.5 125t-11.5 148v635h-152zM441 1328l124 306h258l-216 -306h-166z " />
<glyph unicode="&#xdb;" horiz-adv-x="1265" d="M33 1075v140h508v-140h-138v-669q0 -130 58 -197.5t184 -67.5q132 0 190.5 67.5t58.5 202.5v664h-136v140h473v-140h-154v-655q0 -225 -114 -332t-324 -107q-108 0 -188.5 23.5t-130.5 63t-81 99.5t-42.5 125t-11.5 148v635h-152zM354 1327l134 329h283l140 -329h-180 l-101 252l-101 -252h-175z" />
<glyph unicode="&#xdc;" horiz-adv-x="1265" d="M33 1075v140h508v-140h-138v-669q0 -130 58 -197.5t184 -67.5q132 0 190.5 67.5t58.5 202.5v664h-136v140h473v-140h-154v-655q0 -225 -114 -332t-324 -107q-108 0 -188.5 23.5t-130.5 63t-81 99.5t-42.5 125t-11.5 148v635h-152zM357 1398v185h187v-185h-187zM722 1398 v185h187v-185h-187z" />
<glyph unicode="&#xdd;" horiz-adv-x="1216" d="M-14 1075v140h531v-140h-143l258 -389l243 389h-142v140h494v-140h-159l-348 -525v-409h171v-141h-556v141h167v408l-364 526h-152zM416 1328l124 306h258l-216 -306h-166z" />
<glyph unicode="&#xde;" horiz-adv-x="1124" d="M57 0v141h163v934h-158v140h377v-154h167q232 0 355.5 -96.5t123.5 -276.5q0 -104 -36 -178.5t-105 -116.5t-156 -60.5t-202 -18.5h-147v-173h167v-141h-549zM439 461h138q153 0 217 58t64 170q0 116 -61 171.5t-204 55.5h-154v-455z" />
<glyph unicode="&#xdf;" horiz-adv-x="1143" d="M43 0v141h153v683q0 197 105 303t313 106q163 0 266 -84t103 -218q0 -183 -174 -253q138 -32 213 -112t75 -198q0 -82 -26.5 -147.5t-82 -116t-150 -77.5t-222.5 -27v141q120 0 193 53.5t73 173.5q0 218 -304 218v140q103 0 153 55.5t50 138.5q0 71 -45.5 115t-121.5 44 q-100 0 -152.5 -58.5t-52.5 -192.5v-687h116v-141h-482z" />
<glyph unicode="&#xe0;" horiz-adv-x="977" d="M63 233q0 142 100.5 207.5t270.5 65.5q82 0 192 -21v86q0 79 -50.5 119t-132.5 40q-79 0 -135 -23t-104 -71l-101 112q121 118 358 118q361 0 361 -292v-433h147v-141h-325l-9 88q-77 -59 -141.5 -83t-140.5 -24q-129 0 -209.5 74.5t-80.5 177.5zM250 239 q0 -55 39.5 -91.5t105.5 -36.5q127 0 231 86v171q-9 1 -75.5 9t-104.5 8q-196 0 -196 -146zM297 1266h258l123 -306h-165z" />
<glyph unicode="&#xe1;" horiz-adv-x="977" d="M63 233q0 142 100.5 207.5t270.5 65.5q82 0 192 -21v86q0 79 -50.5 119t-132.5 40q-79 0 -135 -23t-104 -71l-101 112q121 118 358 118q361 0 361 -292v-433h147v-141h-325l-9 88q-77 -59 -141.5 -83t-140.5 -24q-129 0 -209.5 74.5t-80.5 177.5zM250 239 q0 -55 39.5 -91.5t105.5 -36.5q127 0 231 86v171q-9 1 -75.5 9t-104.5 8q-196 0 -196 -146zM297 960l124 306h258l-216 -306h-166z" />
<glyph unicode="&#xe2;" horiz-adv-x="977" d="M63 233q0 142 100.5 207.5t270.5 65.5q82 0 192 -21v86q0 79 -50.5 119t-132.5 40q-79 0 -135 -23t-104 -71l-101 112q121 118 358 118q361 0 361 -292v-433h147v-141h-325l-9 88q-77 -59 -141.5 -83t-140.5 -24q-129 0 -209.5 74.5t-80.5 177.5zM210 959l134 329h283 l140 -329h-180l-101 252l-101 -252h-175zM250 239q0 -55 39.5 -91.5t105.5 -36.5q127 0 231 86v171q-9 1 -75.5 9t-104.5 8q-196 0 -196 -146z" />
<glyph unicode="&#xe3;" horiz-adv-x="977" d="M63 233q0 142 100.5 207.5t270.5 65.5q82 0 192 -21v86q0 79 -50.5 119t-132.5 40q-79 0 -135 -23t-104 -71l-101 112q121 118 358 118q361 0 361 -292v-433h147v-141h-325l-9 88q-77 -59 -141.5 -83t-140.5 -24q-129 0 -209.5 74.5t-80.5 177.5zM196 973q8 105 53.5 157 t110.5 52q50 0 138 -33.5t121 -33.5q44 0 56 62h106q-7 -100 -50.5 -156.5t-116.5 -56.5q-54 0 -140 34.5t-116 34.5q-25 0 -37 -14.5t-17 -45.5h-108zM250 239q0 -55 39.5 -91.5t105.5 -36.5q127 0 231 86v171q-9 1 -75.5 9t-104.5 8q-196 0 -196 -146z" />
<glyph unicode="&#xe4;" horiz-adv-x="977" d="M63 233q0 142 100.5 207.5t270.5 65.5q82 0 192 -21v86q0 79 -50.5 119t-132.5 40q-79 0 -135 -23t-104 -71l-101 112q121 118 358 118q361 0 361 -292v-433h147v-141h-325l-9 88q-77 -59 -141.5 -83t-140.5 -24q-129 0 -209.5 74.5t-80.5 177.5zM213 1030v185h187v-185 h-187zM250 239q0 -55 39.5 -91.5t105.5 -36.5q127 0 231 86v171q-9 1 -75.5 9t-104.5 8q-196 0 -196 -146zM578 1030v185h187v-185h-187z" />
<glyph unicode="&#xe5;" horiz-adv-x="977" d="M63 233q0 142 100.5 207.5t270.5 65.5q82 0 192 -21v86q0 79 -50.5 119t-132.5 40q-79 0 -135 -23t-104 -71l-101 112q121 118 358 118q361 0 361 -292v-433h147v-141h-325l-9 88q-77 -59 -141.5 -83t-140.5 -24q-129 0 -209.5 74.5t-80.5 177.5zM250 239 q0 -55 39.5 -91.5t105.5 -36.5q127 0 231 86v171q-9 1 -75.5 9t-104.5 8q-196 0 -196 -146zM305 1078q0 69 49 117.5t133 48.5t133.5 -48.5t49.5 -117.5q0 -71 -50.5 -121.5t-132.5 -50.5t-132 50.5t-50 121.5zM384 1076q0 -41 28 -70t75 -29q48 0 76 29t28 70t-28 70 t-76 29q-47 0 -75 -29t-28 -70z" />
<glyph unicode="&#xe6;" horiz-adv-x="1542" d="M63 233q0 142 100.5 207.5t270.5 65.5q82 0 192 -21v86q0 79 -50.5 119t-132.5 40q-79 0 -135 -23t-104 -71l-101 112q121 118 358 118q120 0 187.5 -32.5t119.5 -118.5q116 151 314 151q189 0 293 -135.5t104 -347.5h-646q8 -114 73 -182.5t184 -68.5q66 0 132 28.5 t113 80.5l108 -104q-54 -74 -147.5 -115t-214.5 -41q-210 0 -336 128q-167 -128 -392 -128q-129 0 -209.5 74.5t-80.5 177.5zM250 239q0 -55 39.5 -91.5t105.5 -36.5q134 0 277 102q-34 66 -43 150l-3 5q-9 1 -75.5 9t-104.5 8q-196 0 -196 -146zM836 501h452 q0 94 -61.5 157t-155.5 63q-101 0 -160.5 -58.5t-74.5 -161.5z" />
<glyph unicode="&#xe7;" horiz-adv-x="969" d="M59 423q0 189 121.5 316t308.5 127q73 0 135.5 -27.5t100.5 -69.5l-1 80h163v-314h-157q-47 176 -217 176q-117 0 -182.5 -76.5t-65.5 -206.5q0 -134 65.5 -212.5t182.5 -78.5q80 0 148 35.5t110 101.5l133 -85q-122 -208 -394 -208q-110 0 -198.5 37.5t-142 100.5 t-82 141t-28.5 163zM341 -273q23 -4 47 -4q118 0 118 61q0 53 -89 59l39 162h72l-17 -97q55 -9 86 -40t31 -79q0 -66 -54.5 -108.5t-162.5 -42.5q-50 0 -70 4v85z" />
<glyph unicode="&#xe8;" horiz-adv-x="1017" d="M61 420q0 194 132 320t334 126q204 0 315.5 -135t111.5 -348h-686q8 -114 78.5 -182.5t198.5 -68.5q72 0 142.5 28.5t122.5 80.5l108 -104q-57 -74 -155.5 -115t-226.5 -41q-216 0 -345.5 123.5t-129.5 315.5zM271 501h492q-14 99 -75.5 159.5t-161.5 60.5 q-109 0 -173.5 -58.5t-81.5 -161.5zM318 1266h258l123 -306h-165z" />
<glyph unicode="&#xe9;" horiz-adv-x="1017" d="M61 420q0 194 132 320t334 126q204 0 315.5 -135t111.5 -348h-686q8 -114 78.5 -182.5t198.5 -68.5q72 0 142.5 28.5t122.5 80.5l108 -104q-57 -74 -155.5 -115t-226.5 -41q-216 0 -345.5 123.5t-129.5 315.5zM271 501h492q-14 99 -75.5 159.5t-161.5 60.5 q-109 0 -173.5 -58.5t-81.5 -161.5zM317 960l124 306h258l-216 -306h-166z" />
<glyph unicode="&#xea;" horiz-adv-x="1017" d="M61 420q0 194 132 320t334 126q204 0 315.5 -135t111.5 -348h-686q8 -114 78.5 -182.5t198.5 -68.5q72 0 142.5 28.5t122.5 80.5l108 -104q-57 -74 -155.5 -115t-226.5 -41q-216 0 -345.5 123.5t-129.5 315.5zM230 959l134 329h283l140 -329h-180l-101 252l-101 -252 h-175zM271 501h492q-14 99 -75.5 159.5t-161.5 60.5q-109 0 -173.5 -58.5t-81.5 -161.5z" />
<glyph unicode="&#xeb;" horiz-adv-x="1017" d="M61 420q0 194 132 320t334 126q204 0 315.5 -135t111.5 -348h-686q8 -114 78.5 -182.5t198.5 -68.5q72 0 142.5 28.5t122.5 80.5l108 -104q-57 -74 -155.5 -115t-226.5 -41q-216 0 -345.5 123.5t-129.5 315.5zM234 1030v185h187v-185h-187zM271 501h492 q-14 99 -75.5 159.5t-161.5 60.5q-109 0 -173.5 -58.5t-81.5 -161.5zM599 1030v185h187v-185h-187z" />
<glyph unicode="&#xec;" horiz-adv-x="509" d="M8 1274h258l123 -306h-165zM67 0v140h137v569h-137v140h333v-709h137v-140h-470z" />
<glyph unicode="&#xed;" horiz-adv-x="509" d="M67 0v140h137v569h-137v140h333v-709h137v-140h-470zM91 968l124 306h258l-216 -306h-166z" />
<glyph unicode="&#xee;" horiz-adv-x="509" d="M-40 968l134 329h283l140 -329h-180l-101 252l-101 -252h-175zM67 0v140h137v569h-137v140h333v-709h137v-140h-470z" />
<glyph unicode="&#xef;" horiz-adv-x="509" d="M-35 1026v185h187v-185h-187zM67 0v140h137v569h-137v140h333v-709h137v-140h-470zM330 1026v185h187v-185h-187z" />
<glyph unicode="&#xf0;" horiz-adv-x="1006" d="M86 397q0 163 99.5 265.5t257.5 102.5q176 0 281 -102q0 133 -29 225l-150 -40l-35 120l126 33q-67 80 -178 80q-96 0 -215 -61l-66 124q47 36 126.5 62.5t152.5 26.5q237 0 355 -185l158 43l35 -120l-138 -37q51 -141 51 -338q0 -303 -111 -459t-330 -156 q-181 0 -285.5 113.5t-104.5 302.5zM271 380q0 -111 55 -179t156 -68q116 0 170.5 91t67.5 274q-47 51 -116 79t-126 28q-97 0 -152 -62t-55 -163z" />
<glyph unicode="&#xf1;" horiz-adv-x="1105" d="M61 709v140h344q0 -76 2 -104q152 121 285 121q112 0 182.5 -73t70.5 -207l-1 -445h143v-141h-432v141h94v394q0 89 -25.5 132.5t-85.5 43.5q-116 0 -231 -118v-452h121v-141h-463v141h144v568h-148zM260 973q8 105 53.5 157t110.5 52q50 0 138 -33.5t121 -33.5 q44 0 56 62h106q-7 -100 -50.5 -156.5t-116.5 -56.5q-54 0 -140 34.5t-116 34.5q-25 0 -37 -14.5t-17 -45.5h-108z" />
<glyph unicode="&#xf2;" horiz-adv-x="1029" d="M63 424q0 194 127 318t325 124q200 0 326 -124.5t126 -317.5q0 -192 -125.5 -317.5t-328.5 -125.5q-201 0 -325.5 125t-124.5 318zM268 423q0 -128 66.5 -207t179.5 -79t179.5 79t66.5 208t-66.5 208t-180.5 79q-113 0 -179 -79.5t-66 -208.5zM324 1266h258l123 -306 h-165z" />
<glyph unicode="&#xf3;" horiz-adv-x="1029" d="M63 424q0 194 127 318t325 124q200 0 326 -124.5t126 -317.5q0 -192 -125.5 -317.5t-328.5 -125.5q-201 0 -325.5 125t-124.5 318zM268 423q0 -128 66.5 -207t179.5 -79t179.5 79t66.5 208t-66.5 208t-180.5 79q-113 0 -179 -79.5t-66 -208.5zM323 960l124 306h258 l-216 -306h-166z" />
<glyph unicode="&#xf4;" horiz-adv-x="1029" d="M63 424q0 194 127 318t325 124q200 0 326 -124.5t126 -317.5q0 -192 -125.5 -317.5t-328.5 -125.5q-201 0 -325.5 125t-124.5 318zM235 959l134 329h283l140 -329h-180l-101 252l-101 -252h-175zM268 423q0 -128 66.5 -207t179.5 -79t179.5 79t66.5 208t-66.5 208 t-180.5 79q-113 0 -179 -79.5t-66 -208.5z" />
<glyph unicode="&#xf5;" horiz-adv-x="1029" d="M63 424q0 194 127 318t325 124q200 0 326 -124.5t126 -317.5q0 -192 -125.5 -317.5t-328.5 -125.5q-201 0 -325.5 125t-124.5 318zM222 973q8 105 53.5 157t110.5 52q50 0 138 -33.5t121 -33.5q44 0 56 62h106q-7 -100 -50.5 -156.5t-116.5 -56.5q-54 0 -140 34.5 t-116 34.5q-25 0 -37 -14.5t-17 -45.5h-108zM268 423q0 -128 66.5 -207t179.5 -79t179.5 79t66.5 208t-66.5 208t-180.5 79q-113 0 -179 -79.5t-66 -208.5z" />
<glyph unicode="&#xf6;" horiz-adv-x="1029" d="M63 424q0 194 127 318t325 124q200 0 326 -124.5t126 -317.5q0 -192 -125.5 -317.5t-328.5 -125.5q-201 0 -325.5 125t-124.5 318zM239 1030v185h187v-185h-187zM268 423q0 -128 66.5 -207t179.5 -79t179.5 79t66.5 208t-66.5 208t-180.5 79q-113 0 -179 -79.5 t-66 -208.5zM604 1030v185h187v-185h-187z" />
<glyph unicode="&#xf7;" horiz-adv-x="1164" d="M158 495v118h843v-118h-843zM506 244q0 15 41 27.5t65 12.5q16 0 30 -44.5t14 -68.5q0 -15 -41 -27.5t-65 -12.5q-17 0 -30.5 44t-13.5 69zM506 935q0 15 40.5 28t65.5 13q16 0 30 -44t14 -68q0 -15 -41 -27.5t-65 -12.5q-17 0 -30.5 43.5t-13.5 67.5z" />
<glyph unicode="&#xf8;" horiz-adv-x="967" d="M58 402q0 178 118 300t309 122q86 0 152 -25l65 127l94 -43l-66 -130q86 -56 133.5 -148t47.5 -203q0 -178 -118.5 -300t-309.5 -122q-72 0 -140 19l-64 -125l-94 43l63 124q-90 56 -140 151.5t-50 209.5zM217 402q0 -152 97 -234l260 509q-44 15 -91 15 q-121 0 -193.5 -82t-72.5 -208zM406 120q35 -9 77 -9q122 0 195 82t73 209q0 139 -88 221z" />
<glyph unicode="&#xf9;" horiz-adv-x="1087" d="M26 709v140h324v-557q0 -79 28 -117t93 -38q117 0 224 122v450h-141v140h339v-708h147v-141h-341l-4 96q-135 -115 -275 -115q-135 0 -201 75t-66 213v440h-127zM353 1266h258l123 -306h-165z" />
<glyph unicode="&#xfa;" horiz-adv-x="1087" d="M26 709v140h324v-557q0 -79 28 -117t93 -38q117 0 224 122v450h-141v140h339v-708h147v-141h-341l-4 96q-135 -115 -275 -115q-135 0 -201 75t-66 213v440h-127zM352 960l124 306h258l-216 -306h-166z" />
<glyph unicode="&#xfb;" horiz-adv-x="1087" d="M26 709v140h324v-557q0 -79 28 -117t93 -38q117 0 224 122v450h-141v140h339v-708h147v-141h-341l-4 96q-135 -115 -275 -115q-135 0 -201 75t-66 213v440h-127zM265 959l134 329h283l140 -329h-180l-101 252l-101 -252h-175z" />
<glyph unicode="&#xfc;" horiz-adv-x="1087" d="M26 709v140h324v-557q0 -79 28 -117t93 -38q117 0 224 122v450h-141v140h339v-708h147v-141h-341l-4 96q-135 -115 -275 -115q-135 0 -201 75t-66 213v440h-127zM268 1030v185h187v-185h-187zM633 1030v185h187v-185h-187z" />
<glyph unicode="&#xfd;" horiz-adv-x="1049" d="M2 709v140h451v-140h-106l198 -534l176 534h-113v140h432v-140h-131l-259 -732q-55 -154 -81 -201q-51 -93 -139 -121q-54 -18 -133 -18h-118v157h98q41 0 63.5 4t45.5 18.5t39 44t32 80.5l31 104h-69l-289 664h-128zM333 960l124 306h258l-216 -306h-166z" />
<glyph unicode="&#xfe;" horiz-adv-x="835" d="M-100 1075v140h345v-465q65 60 134 88t157 28q181 0 292 -123.5t111 -309.5q0 -202 -115.5 -327t-288.5 -125q-86 0 -164.5 32t-125.5 91v-434h-341v144h143v1261h-147zM245 253q107 -116 235 -116q118 0 185 77.5t67 204.5q0 128 -68 209.5t-185 81.5q-43 0 -85 -14.5 t-72.5 -38t-47.5 -39.5t-29 -31v-334z" />
<glyph unicode="&#xff;" horiz-adv-x="1049" d="M2 709v140h451v-140h-106l198 -534l176 534h-113v140h432v-140h-131l-259 -732q-55 -154 -81 -201q-51 -93 -139 -121q-54 -18 -133 -18h-118v157h98q41 0 63.5 4t45.5 18.5t39 44t32 80.5l31 104h-69l-289 664h-128zM249 1030v185h187v-185h-187zM614 1030v185h187v-185 h-187z" />
<glyph unicode="&#x152;" horiz-adv-x="2046" d="M76 607q0 130 43.5 243.5t123 199t201 134.5t268.5 49q223 0 368 -109v91h880v-348h-166v208h-496v-379h328v116h101v-378h-102v113h-327v-406h498v214h167v-355h-883v91q-145 -110 -367 -110q-149 0 -271 49.5t-201 135.5t-122 199t-43 242zM314 605q0 -208 117 -336 t299 -128q209 0 350 122v693q-145 119 -352 119q-180 0 -297 -125.5t-117 -344.5z" />
<glyph unicode="&#x153;" horiz-adv-x="1715" d="M63 424q0 194 127 318t325 124q110 0 201 -45t151 -125q64 80 156.5 125t201.5 45q204 0 315.5 -135t111.5 -348h-686q8 -114 78.5 -182.5t198.5 -68.5q72 0 142.5 28.5t122.5 80.5l108 -104q-57 -74 -155.5 -115t-226.5 -41q-118 0 -212.5 44t-157.5 124 q-61 -79 -150.5 -123.5t-200.5 -44.5q-201 0 -325.5 125t-124.5 318zM268 423q0 -128 66.5 -207t179.5 -79t179.5 79t66.5 208t-66.5 208t-180.5 79q-113 0 -179 -79.5t-66 -208.5zM969 501h492q-14 99 -75.5 159.5t-161.5 60.5q-109 0 -173.5 -58.5t-81.5 -161.5z" />
<glyph unicode="&#x178;" horiz-adv-x="1216" d="M-14 1075v140h531v-140h-143l258 -389l243 389h-142v140h494v-140h-159l-348 -525v-409h171v-141h-556v141h167v408l-364 526h-152zM333 1396v185h187v-185h-187zM698 1396v185h187v-185h-187z" />
<glyph unicode="&#x2c6;" horiz-adv-x="593" d="M18 959l134 329h283l140 -329h-180l-101 252l-101 -252h-175z" />
<glyph unicode="&#x2dc;" horiz-adv-x="587" d="M1 973q8 105 53.5 157t110.5 52q50 0 138 -33.5t121 -33.5q44 0 56 62h106q-7 -100 -50.5 -156.5t-116.5 -56.5q-55 0 -140.5 34.5t-115.5 34.5q-25 0 -37 -14.5t-17 -45.5h-108z" />
<glyph unicode="&#x2000;" horiz-adv-x="828" />
<glyph unicode="&#x2001;" horiz-adv-x="1656" />
<glyph unicode="&#x2002;" horiz-adv-x="828" />
<glyph unicode="&#x2003;" horiz-adv-x="1656" />
<glyph unicode="&#x2004;" horiz-adv-x="552" />
<glyph unicode="&#x2005;" horiz-adv-x="414" />
<glyph unicode="&#x2006;" horiz-adv-x="276" />
<glyph unicode="&#x2007;" horiz-adv-x="276" />
<glyph unicode="&#x2008;" horiz-adv-x="207" />
<glyph unicode="&#x2009;" horiz-adv-x="331" />
<glyph unicode="&#x200a;" horiz-adv-x="92" />
<glyph unicode="&#x2010;" horiz-adv-x="654" d="M92 357v149h475v-149h-475z" />
<glyph unicode="&#x2011;" horiz-adv-x="654" d="M92 357v149h475v-149h-475z" />
<glyph unicode="&#x2012;" horiz-adv-x="654" d="M92 357v149h475v-149h-475z" />
<glyph unicode="&#x2013;" horiz-adv-x="1001" d="M64 193v124h873v-124h-873z" />
<glyph unicode="&#x2014;" horiz-adv-x="1823" d="M64 193v124h1695v-124h-1695z" />
<glyph unicode="&#x2018;" horiz-adv-x="382" d="M86 787v213q0 116 47.5 174t159.5 59v-96q-54 -11 -75 -39.5t-22 -94.5h93v-216h-203z" />
<glyph unicode="&#x2019;" horiz-adv-x="364" d="M85 768v97q54 11 75 39.5t23 95.5h-95v215h203v-212q0 -116 -47.5 -175t-158.5 -60z" />
<glyph unicode="&#x201a;" horiz-adv-x="389" d="M85 -147q54 11 75 39.5t23 95.5h-95v215h203v-212q0 -116 -47.5 -175t-158.5 -60v97z" />
<glyph unicode="&#x201c;" horiz-adv-x="691" d="M86 787v213q0 116 47.5 174t159.5 59v-96q-54 -11 -75 -39.5t-22 -94.5h93v-216h-203zM392 787v213q0 116 47.5 174t159.5 59v-96q-54 -11 -75 -39.5t-22 -94.5h92v-216h-202z" />
<glyph unicode="&#x201d;" horiz-adv-x="677" d="M85 768v97q54 11 75 39.5t23 95.5h-95v215h203v-212q0 -116 -47.5 -175t-158.5 -60zM384 768v97q54 11 75 39.5t23 95.5h-95v215h203v-212q0 -116 -47.5 -175t-158.5 -60z" />
<glyph unicode="&#x201e;" horiz-adv-x="785" d="M120 -147q54 11 75 39.5t22 95.5h-94v215h203v-212q0 -116 -47.5 -175t-158.5 -60v97zM480 -147q54 11 75 39.5t22 95.5h-94v215h203v-212q0 -116 -47.5 -175t-158.5 -60v97z" />
<glyph unicode="&#x2022;" horiz-adv-x="559" d="M80 562q0 81 58 136.5t142 55.5t142.5 -55.5t58.5 -136.5q0 -80 -59 -137t-142 -57q-84 0 -142 56.5t-58 137.5z" />
<glyph unicode="&#x2026;" horiz-adv-x="1501" d="M120 6q0 163 7 238q152 0 248 -6q0 -155 -8 -239q-161 0 -247 7zM620 6q0 163 7 238q152 0 248 -6q0 -172 -8 -239q-161 0 -247 7zM1120 6q0 163 7 238q152 0 248 -6q0 -165 -7 -239q-162 0 -248 7z" />
<glyph unicode="&#x202f;" horiz-adv-x="331" />
<glyph unicode="&#x2039;" horiz-adv-x="723" d="M133 500v106l313 357h144l-207 -410l207 -410h-144z" />
<glyph unicode="&#x203a;" horiz-adv-x="723" d="M133 143l207 410l-207 410h143l314 -357v-106l-314 -357h-143z" />
<glyph unicode="&#x205f;" horiz-adv-x="414" />
<glyph unicode="&#x20ac;" horiz-adv-x="1284" d="M36 426v123h151q-2 30 -2 57q0 51 3 77h-152v123h171q46 194 179 310.5t328 116.5q189 0 321 -136v118h163v-383h-155q-91 243 -300 243q-108 0 -185 -72.5t-111 -196.5h288v-123h-310q-3 -36 -3 -74q0 -45 2 -60h311v-123h-291q32 -132 107.5 -208.5t190.5 -76.5 q117 0 204.5 74.5t116.5 223.5l172 -81q-104 -373 -502 -377q-214 1 -349 122.5t-179 322.5h-169z" />
<glyph unicode="&#x2122;" horiz-adv-x="2069" d="M83 916v299h730v-299h-125v187h-156v-542h121v-112h-409v112h123v542h-158v-187h-126zM872 449v112h108v542h-108v112h327l217 -520l222 520h342v-112h-108v-542h108v-112h-365v112h101v498l-270 -610h-64l-278 609v-497h101v-112h-333z" />
<glyph unicode="&#xe000;" horiz-adv-x="850" d="M0 0v850h850v-850h-850z" />
<glyph unicode="&#xfb01;" horiz-adv-x="1142" d="M59 709v140h130v102q0 282 270 282q232 0 232 -224h-155q0 45 -20 66t-50 21q-43 0 -61 -34t-18 -114v-99h603v-708h137v-141h-470v141h137v568h-407v-568h158v-141h-482v141h126v568h-130zM793 1119q0 45 33 76.5t80 31.5q49 0 82 -31.5t33 -76.5q0 -46 -33 -77t-82 -31 q-47 0 -80 31t-33 77z" />
<glyph unicode="&#xfb02;" horiz-adv-x="1137" d="M59 709v140h130v102q0 131 63.5 197.5t206.5 66.5h510v-1074h135v-141h-477v141h146v934h-307q-45 0 -62 -25t-17 -102v-99h155v-140h-155v-568h158v-141h-482v141h126v568h-130z" />
</font>
</defs>
</svg>
